Coordinates
version=1
nRows=34
nColumns=38
inDegrees=no

Units are S.I. units (second, meters, Newtons, ...)
If the header above contains a line with 'inDegrees', this indicates whether rotational values are in degrees (yes) or radians (no).

endheader
time	pelvis_tilt	pelvis_list	pelvis_rotation	pelvis_tx	pelvis_ty	pelvis_tz	hip_flexion_r	hip_adduction_r	hip_rotation_r	knee_angle_r	ankle_angle_r	subtalar_angle_r	mtp_angle_r	hip_flexion_l	hip_adduction_l	hip_rotation_l	knee_angle_l	ankle_angle_l	subtalar_angle_l	mtp_angle_l	lumbar_extension	lumbar_bending	lumbar_rotation	arm_flex_r	arm_add_r	arm_rot_r	elbow_flex_r	pro_sup_r	wrist_flex_r	wrist_dev_r	arm_flex_l	arm_add_l	arm_rot_l	elbow_flex_l	pro_sup_l	wrist_flex_l	wrist_dev_l
0	3.06952	1.157	-1.31971	0.780368	-0.552879	0.94604	-0.209584	0.0713629	-0.277614	0.400014	-0.182779	0	0	-0.115929	-0.14072	0.0841556	1.41457	-0.211933	0	0	-0.371645	0.164693	0.145938	-0.136146	-0.885657	-0.00703928	1.60048	0.425235	0	0	0.653569	-0.486005	0.830278	1.08925	0.622881	0	0
0.01	3.06952	1.15913	-1.32526	0.781772	-0.542816	0.947514	-0.227581	0.0752626	-0.27301	0.381383	-0.183202	0	0	-0.0848898	-0.13738	0.0754183	1.4253	-0.21707	0	0	-0.369691	0.161726	0.149645	-0.13384	-0.882518	-0.00463881	1.59753	0.425712	0	0	0.650329	-0.487854	0.828325	1.08926	0.627265	0	0
0.02	3.07228	1.15859	-1.33564	0.783287	-0.532546	0.94911	-0.248564	0.0773388	-0.271067	0.363975	-0.185211	0	0	-0.0613026	-0.132038	0.0655206	1.42648	-0.214953	0	0	-0.370853	0.15707	0.155475	-0.132228	-0.87953	-0.00286715	1.59532	0.427328	0	0	0.647341	-0.488883	0.825671	1.08966	0.631177	0	0
0.03	3.07585	1.15671	-1.34803	0.784872	-0.522282	0.950586	-0.270498	0.0785402	-0.269635	0.347447	-0.187685	0	0	-0.0415545	-0.127999	0.0514857	1.42065	-0.210875	0	0	-0.373733	0.151919	0.162906	-0.131826	-0.877716	-0.00203696	1.59464	0.428564	0	0	0.644755	-0.48999	0.82281	1.0911	0.633666	0	0
0.04	3.07923	1.15445	-1.36138	0.786537	-0.512095	0.951892	-0.29209	0.0792877	-0.267044	0.332098	-0.18954	0	0	-0.0244927	-0.125399	0.0334828	1.40958	-0.203074	0	0	-0.377351	0.146605	0.171686	-0.131854	-0.876799	-0.00159771	1.59492	0.428856	0	0	0.642851	-0.491498	0.820863	1.09312	0.63433	0	0
0.05	3.08113	1.15147	-1.37415	0.788232	-0.502023	0.95303	-0.313724	0.0801253	-0.264512	0.31702	-0.191353	0	0	-0.00938745	-0.125414	0.0110927	1.39492	-0.193802	0	0	-0.382105	0.14171	0.181736	-0.132073	-0.877021	-0.00143051	1.59602	0.427933	0	0	0.641914	-0.492961	0.819546	1.0955	0.63454	0	0
0.06	3.0815	1.14833	-1.38607	0.789921	-0.492001	0.953961	-0.334528	0.0807204	-0.26262	0.30337	-0.192525	0	0	0.00459934	-0.128661	-0.0162315	1.3765	-0.186764	0	0	-0.387057	0.137215	0.192625	-0.132503	-0.878143	-0.00129463	1.59766	0.426539	0	0	0.641255	-0.494085	0.817957	1.09779	0.63475	0	0
0.07	3.08118	1.14456	-1.39767	0.791582	-0.481984	0.954718	-0.355534	0.0811221	-0.259507	0.291334	-0.193108	0	0	0.0168504	-0.13605	-0.0501515	1.35363	-0.185166	0	0	-0.392321	0.133126	0.204699	-0.134449	-0.879946	-0.00255546	1.60011	0.424093	0	0	0.640674	-0.493918	0.815554	1.09911	0.635073	0	0
0.08	3.07982	1.13982	-1.40824	0.793193	-0.471973	0.9553	-0.37736	0.0818135	-0.254845	0.279776	-0.193155	0	0	0.0271493	-0.149076	-0.0929293	1.32674	-0.18936	0	0	-0.398695	0.129541	0.217157	-0.13722	-0.882284	-0.00489705	1.60356	0.42109	0	0	0.641155	-0.494405	0.814832	1.10135	0.635078	0	0
0.09	3.07912	1.1348	-1.41826	0.794631	-0.462041	0.955747	-0.399318	0.0822905	-0.250497	0.268902	-0.191908	0	0	0.0348007	-0.16195	-0.13517	1.29493	-0.197198	0	0	-0.405573	0.125875	0.22858	-0.140023	-0.884556	-0.00767191	1.60713	0.41852	0	0	0.642702	-0.495087	0.815096	1.10369	0.635264	0	0
0.1	3.07884	1.1304	-1.42739	0.795931	-0.45232	0.956046	-0.420043	0.0826182	-0.245478	0.258825	-0.189744	0	0	0.0409449	-0.170285	-0.169538	1.25808	-0.206758	0	0	-0.41215	0.122215	0.238781	-0.142196	-0.886366	-0.010589	1.61039	0.41648	0	0	0.645254	-0.495127	0.816161	1.10475	0.636112	0	0
0.11	3.07826	1.12676	-1.43489	0.797085	-0.442804	0.956129	-0.438945	0.0831489	-0.239915	0.250418	-0.186571	0	0	0.0460778	-0.174982	-0.196227	1.21546	-0.215837	0	0	-0.418297	0.118904	0.247758	-0.143995	-0.887607	-0.0141034	1.61357	0.414923	0	0	0.647941	-0.494707	0.816242	1.1056	0.636614	0	0
0.12	3.07674	1.12515	-1.43962	0.797988	-0.433262	0.9559	-0.455029	0.084217	-0.235641	0.243742	-0.183352	0	0	0.0518152	-0.177145	-0.216311	1.16782	-0.223526	0	0	-0.422091	0.116449	0.25439	-0.14451	-0.88828	-0.0164475	1.61596	0.41423	0	0	0.649773	-0.494926	0.815795	1.10675	0.637051	0	0
0.13	3.07521	1.1251	-1.4425	0.798642	-0.423688	0.955398	-0.468962	0.0854984	-0.231817	0.237868	-0.179854	0	0	0.0579474	-0.177196	-0.232062	1.11644	-0.2331	0	0	-0.424071	0.114488	0.258928	-0.144278	-0.888556	-0.0181413	1.6179	0.414661	0	0	0.651235	-0.495568	0.815193	1.10788	0.638309	0	0
0.14	3.07438	1.12646	-1.44427	0.799112	-0.414095	0.954688	-0.481454	0.0868827	-0.228364	0.233138	-0.174802	0	0	0.0642338	-0.175145	-0.245435	1.06164	-0.243136	0	0	-0.424374	0.112661	0.261361	-0.142755	-0.887957	-0.018933	1.61899	0.416128	0	0	0.65247	-0.496285	0.81422	1.10843	0.640629	0	0
0.15	3.07412	1.12947	-1.44505	0.799423	-0.404484	0.953793	-0.492022	0.0882527	-0.224593	0.229305	-0.168657	0	0	0.07044	-0.170964	-0.256198	1.00421	-0.251318	0	0	-0.422918	0.110678	0.261519	-0.139929	-0.886119	-0.0186939	1.61909	0.418491	0	0	0.652942	-0.496614	0.812039	1.10837	0.641654	0	0
0.16	3.07425	1.13411	-1.44466	0.799575	-0.394819	0.952726	-0.500962	0.089691	-0.223007	0.224807	-0.163068	0	0	0.0761452	-0.164422	-0.263755	0.943997	-0.255209	0	0	-0.419458	0.108812	0.259874	-0.136583	-0.883336	-0.0177855	1.61832	0.421467	0	0	0.653187	-0.49724	0.810313	1.10792	0.643086	0	0
0.17	3.0755	1.14003	-1.44393	0.799541	-0.385047	0.951489	-0.508971	0.0910661	-0.221573	0.21969	-0.158198	0	0	0.0805267	-0.155474	-0.268896	0.881326	-0.252351	0	0	-0.41438	0.106814	0.256746	-0.133477	-0.880015	-0.0167422	1.61716	0.424408	0	0	0.65336	-0.498226	0.809281	1.10719	0.644472	0	0
0.18	3.07689	1.1473	-1.44223	0.799369	-0.375249	0.950109	-0.51544	0.0927192	-0.219827	0.215134	-0.152113	0	0	0.0833289	-0.143714	-0.266808	0.81211	-0.245727	0	0	-0.40761	0.104773	0.252083	-0.129204	-0.875042	-0.0151219	1.61452	0.429235	0	0	0.65282	-0.499165	0.806945	1.10605	0.64674	0	0
0.19	3.06933	1.15087	-1.43319	0.798276	-0.365778	0.948477	-0.523479	0.0957106	-0.217376	0.214798	-0.145148	0	0	0.0793516	-0.133168	-0.258549	0.736287	-0.234941	0	0	-0.405126	0.108985	0.24991	-0.126088	-0.87668	-0.0148004	1.61498	0.431809	0	0	0.652113	-0.49753	0.803145	1.10511	0.64914	0	0
0.2	3.06788	1.16116	-1.42685	0.797516	-0.355918	0.946639	-0.523599	0.0976618	-0.218847	0.214387	-0.137481	0	0	0.077731	-0.115138	-0.232727	0.650013	-0.226008	0	0	-0.39499	0.109003	0.243255	-0.121579	-0.872745	-0.0123898	1.61219	0.435822	0	0	0.650403	-0.49784	0.799897	1.10364	0.651471	0	0
0.21	3.06773	1.17296	-1.42041	0.796613	-0.346161	0.944756	-0.523599	0.0996434	-0.220396	0.214527	-0.129845	0	0	0.066492	-0.0877842	-0.173437	0.539645	-0.22046	0	0	-0.38342	0.108334	0.234214	-0.114374	-0.867283	-0.00800611	1.60762	0.441682	0	0	0.648563	-0.498853	0.796799	1.10185	0.652372	0	0
0.22	3.06308	1.18369	-1.41025	0.795717	-0.335981	0.942636	-0.523599	0.102759	-0.222126	0.215903	-0.122313	0	0	0.0562593	-0.0719791	-0.134484	0.440554	-0.222922	0	0	-0.371521	0.109183	0.225787	-0.107561	-0.862366	-0.00266757	1.60299	0.448826	0	0	0.646405	-0.500905	0.794616	1.10118	0.651651	0	0
0.23	3.05412	1.19278	-1.39684	0.79476	-0.325488	0.94042	-0.523599	0.106524	-0.223673	0.216681	-0.115996	0	0	0.0512823	-0.066753	-0.12219	0.364765	-0.227449	0	0	-0.360081	0.111681	0.218625	-0.10164	-0.858675	0.00303026	1.5987	0.455517	0	0	0.644877	-0.503346	0.794463	1.1007	0.650375	0	0
0.24	3.04357	1.20081	-1.3826	0.79377	-0.314927	0.938308	-0.523599	0.110372	-0.224072	0.217526	-0.11126	0	0	0.0459165	-0.0637924	-0.113127	0.297898	-0.2313	0	0	-0.349336	0.114721	0.212221	-0.0955812	-0.855244	0.00905649	1.59412	0.461421	0	0	0.643943	-0.505165	0.795131	1.09909	0.648579	0	0
0.25	3.03235	1.20836	-1.36902	0.792949	-0.304131	0.936304	-0.523599	0.113691	-0.223188	0.218858	-0.108307	0	0	0.0396704	-0.062217	-0.1055	0.237343	-0.234462	0	0	-0.33855	0.117302	0.206949	-0.08985	-0.850935	0.0149351	1.58918	0.46656	0	0	0.642971	-0.50716	0.796318	1.09695	0.646295	0	0
0.26	3.02065	1.21505	-1.3561	0.792248	-0.293231	0.93441	-0.523599	0.11616	-0.220866	0.223767	-0.105326	0	0	0.0323367	-0.0618772	-0.0966303	0.182619	-0.240479	0	0	-0.328368	0.119666	0.202322	-0.0834881	-0.84596	0.0212749	1.58385	0.471974	0	0	0.642151	-0.509794	0.7986	1.09461	0.643668	0	0
0.27	3.00851	1.22114	-1.34344	0.791566	-0.282203	0.932521	-0.523599	0.118006	-0.218446	0.231006	-0.102269	0	0	0.025154	-0.062983	-0.0866586	0.138085	-0.250227	0	0	-0.318543	0.121998	0.198087	-0.0771631	-0.840828	0.0277259	1.57872	0.477965	0	0	0.641115	-0.51261	0.800775	1.09244	0.642332	0	0
0.28	2.99695	1.22605	-1.33261	0.790873	-0.271054	0.930698	-0.523599	0.11868	-0.216261	0.240509	-0.100426	0	0	0.0201301	-0.0649945	-0.0831221	0.115222	-0.259952	0	0	-0.310286	0.124153	0.195054	-0.0717894	-0.836354	0.0333829	1.57496	0.482806	0	0	0.639095	-0.515309	0.800697	1.09124	0.642985	0	0
0.29	2.98816	1.22918	-1.32601	0.790199	-0.259848	0.929099	-0.523599	0.11745	-0.214859	0.253204	-0.0995345	0	0	0.0172089	-0.0667272	-0.0867481	0.118818	-0.267441	0	0	-0.304773	0.125421	0.193474	-0.0672571	-0.832422	0.0379792	1.57248	0.486413	0	0	0.636398	-0.518036	0.798485	1.09126	0.643966	0	0
0.3	2.98386	1.23085	-1.32497	0.789568	-0.248564	0.927751	-0.523599	0.114169	-0.213117	0.268451	-0.0990961	0	0	0.0146116	-0.0676495	-0.091284	0.140553	-0.270719	0	0	-0.30166	0.125038	0.193113	-0.0638929	-0.828628	0.0413163	1.57105	0.489122	0	0	0.634211	-0.521409	0.796726	1.09243	0.643914	0	0
0.31	2.98409	1.23101	-1.32949	0.788871	-0.237202	0.926706	-0.523599	0.108989	-0.209722	0.285463	-0.100141	0	0	0.00998448	-0.0667694	-0.095624	0.168258	-0.266048	0	0	-0.301038	0.123289	0.194482	-0.0625974	-0.825264	0.0425346	1.57082	0.490606	0	0	0.632708	-0.523933	0.794837	1.09354	0.643833	0	0
0.32	2.98881	1.23053	-1.33873	0.788	-0.225632	0.925896	-0.523599	0.10197	-0.205432	0.304279	-0.103142	0	0	0.00322038	-0.0632729	-0.100302	0.189705	-0.261514	0	0	-0.301223	0.120207	0.196619	-0.0633711	-0.821915	0.042142	1.57104	0.492119	0	0	0.631398	-0.525604	0.792947	1.09423	0.644819	0	0
0.33	2.99774	1.23057	-1.35179	0.787006	-0.213907	0.925251	-0.523599	0.0932405	-0.199824	0.325854	-0.108215	0	0	-0.00369523	-0.0577781	-0.105437	0.200068	-0.267715	0	0	-0.300824	0.115425	0.198582	-0.0654612	-0.817875	0.0409358	1.57097	0.493429	0	0	0.630444	-0.527507	0.792646	1.09496	0.645549	0	0
